<?xml version="1.0" encoding="UTF-8"?>
<!-- Creator: CorelDRAW 2021 (64 Bit) -->
<svg xmlns="http://www.w3.org/2000/svg" xml:space="preserve" width="877px" height="287px" version="1.1" shape-rendering="geometricPrecision" text-rendering="geometricPrecision" image-rendering="optimizeQuality" fill-rule="evenodd" clip-rule="evenodd"
viewBox="0 0 877 287.293"
 xmlns:xlink="http://www.w3.org/1999/xlink"
 xmlns:xodm="http://www.corel.com/coreldraw/odm/2003">
 <g id="Camada_x0020_1">
  <metadata id="CorelCorpID_0Corel-Layer"/>
  <path fill="#DCF9FE" d="M534.589 188.92c-1.358,0.268 -2.45,0.992 -3.726,1.254 -1.748,-1.341 -2.661,-4.599 -10.886,-9.333 -3.452,-1.988 -11.156,-4.63 -16.212,-4.454 -3.079,0.074 -5.35,-0.069 -8.238,0.434 -4.104,0.714 -8.942,2.235 -12.252,4.177 -5.114,3 -9.105,6.539 -12.101,11.65 -2.301,3.924 -2.985,6.651 -3.631,11.665 -1.573,0.285 -10.624,-4.778 -22.773,2.169l-1.273 0.742c-4.178,2.775 -2.175,3.66 -5.008,2.412 -2.829,-1.246 -6.997,-2.531 -10.111,-2.999 -4.262,-0.639 -6.548,-0.744 -10.69,-0.306 -1.099,0.117 -2.272,0.379 -3.302,0.383 -0.351,-1.402 -0.201,-3.817 -0.485,-5.405 -0.297,-1.655 -0.628,-3.047 -1.083,-4.712 -0.749,-2.745 -3.167,-7.875 -4.812,-10.041l-3.893 -4.988c-2.441,-2.389 -3.209,-3.42 -6.442,-5.716 -8.731,-6.199 -16.871,-8.735 -28.217,-9.516 -1.946,-0.134 -4.362,-0.053 -6.266,0.161l-5.654 0.777 -3.892 0.767c1.343,-7.209 0.663,-15.031 -1.846,-21.573 -2.081,-5.425 -5.479,-11.144 -9.839,-15.557 -4.711,-4.765 -8.747,-7.681 -15.175,-10.943 -5.149,-2.614 -14.156,-5.378 -21.206,-5.642 -1.669,-0.015 -3.21,-0.231 -4.971,-0.239 -1.582,-0.007 -3.407,0.118 -5.038,0.22l-2.66 0.26c-0.529,0.309 -2.99,0.505 -3.939,0.663 -2.621,0.436 -7.88,2.144 -10.187,3.007 -5.07,1.897 -12.63,6.333 -16.145,9.811 -1.277,1.264 -2.838,2.625 -4.271,4.23 -1.612,1.806 -4.246,5.275 -5.319,7.306 -0.386,0.731 -0.778,1.986 -1.443,2.557 -0.486,-0.093 -0.416,-0.117 -0.891,-0.295 -0.307,-0.116 -0.434,-0.155 -0.724,-0.264 -0.572,-0.215 -1.068,-0.404 -1.598,-0.588 -7.925,-2.756 -18.788,-2.85 -26.513,0.188 -2.453,0.965 -3.948,1.585 -6.01,2.722 -3.871,2.135 -8.96,6.421 -11.103,9.904 -0.14,0.228 -0.291,0.507 -0.413,0.697 -0.473,0.733 -0.687,0.93 -1.049,1.848l-0.368 -0.149c-0.058,-0.025 -0.102,-0.042 -0.162,-0.07l-4.705 -2.527c-1.4,-0.714 -3.962,-1.482 -5.591,-1.969 -4.056,-1.211 -9.978,-1.769 -14.36,-1.333 -7.933,0.789 -13.651,2.978 -19.758,7.302 -0.727,0.516 -1.393,1.307 -2.218,1.543 -0.476,-0.716 -0.871,-1.648 -1.395,-2.403 -0.918,-1.323 -2.946,-4.297 -3.979,-5.414 -0.191,-0.205 -0.339,-0.339 -0.478,-0.508l-1.255 -1.494c-0.716,-0.962 -2.414,-2.546 -3.462,-3.552 -0.026,-0.025 -0.063,-0.057 -0.089,-0.082l-1.219 -1.079c-0.733,-0.605 -1.328,-1.242 -2.002,-1.775 -1.937,-1.537 -5.818,-4.315 -8.09,-5.455 -0.442,-0.223 -0.636,-0.413 -1.152,-0.714 -2.962,-1.729 -7.278,-3.554 -10.697,-4.755 -7.438,-2.614 -19.322,-4.649 -27.958,-3.771 -1.339,0.136 -2.581,0.128 -3.91,0.28 -1.169,0.134 -2.355,0.336 -3.462,0.499 -5.202,0.77 -5.878,1.332 -9.623,2.214 -2.71,0.638 -7.444,2.9 -8.602,3.184l-5.293 2.693c0.126,-4.622 0.157,-7.17 -1.541,-11.264 -3.603,-8.689 -12.976,-16 -24.672,-16.658 -1.555,-0.001 -3.118,-0.052 -4.682,-0.038 -1.494,0.012 -2.698,0.437 -4.032,0.468 -1.575,0.15 -4.301,1.316 -5.264,1.297 -0.199,-8.378 -5.283,-17.196 -11.159,-22.585 -2.608,-2.393 -4.724,-3.901 -8.055,-5.841 -1.25,-0.729 -3.479,-1.87 -4.854,-2.278l0 74.656 8.6 -0.254c1.447,-0.223 6.569,-0.029 8.258,0.076 1.294,0.08 2.734,0.283 4.042,0.318 1.664,0.044 2.365,0.302 4.04,0.338 0.792,1.08 2.696,0.463 4.13,0.91 0.041,0.013 0.084,0.03 0.126,0.043l1.037 0.201c0.359,0.049 0.575,0.046 0.768,0.145 0.502,0.256 -0.065,-0.034 0.087,0.279 1.18,0.055 2.532,-0.001 3.183,0.314 0.452,0.219 0.589,0.191 0.809,0.636 1.053,0.028 2.894,0.403 3.689,0.796 0.237,0.117 0.17,0.083 0.329,0.163l3.506 1.248c0.277,0.099 1.053,0.373 1.324,0.513l3.964 1.753c0.655,0.327 0.239,0.129 0.575,0.392l1.1 0.583c0.956,0.616 1.148,0.369 1.96,0.893 0.442,0.285 0.742,0.456 1.213,0.646 0.139,0.057 0.16,0.063 0.381,0.136l1.604 0.872c0.03,0.019 0.071,0.045 0.102,0.064l2.043 1.275c0.263,0.182 0.357,0.22 0.622,0.382l2.748 1.893c1.253,0.71 2.155,1.524 3.178,2.415l0.529 0.457c0.026,0.021 0.062,0.054 0.087,0.076 0.025,0.023 0.062,0.055 0.088,0.078 0.026,0.021 0.064,0.052 0.091,0.075l0.434 0.378c0.022,0.024 0.055,0.058 0.075,0.082l0.478 0.656c0.111,0.12 0.148,0.141 0.267,0.239l0.374 0.283c0.026,0.022 0.06,0.055 0.085,0.076l2.269 2.005c0.037,0.029 0.152,0.113 0.188,0.143 0.027,0.022 0.068,0.05 0.093,0.072 0.025,0.021 0.065,0.051 0.089,0.073l0.864 1.067c0.167,0.226 0.246,0.388 0.424,0.559 1.243,1.195 0.211,-0.041 1.114,1.462 0.316,0.525 0.345,0.672 1.132,0.717 -0.585,0.343 -0.296,0.011 -0.49,0.595l0.83 -0.144c-0.428,-0.064 -0.026,-0.042 -0.225,0.219 0.932,-0.125 1.937,-0.685 3.111,-0.918 1.021,-0.204 2.024,-0.447 3.115,-0.674 3.468,-0.724 4.958,-0.334 7.278,-0.529 0.377,-0.201 0.884,-0.166 1.391,-0.172 0.531,-0.008 1.056,-0.028 1.587,-0.017 1.938,0.044 4.717,0.088 6.622,0.83l0.434 0.229c0.832,0.374 1.35,0.054 2.466,0.613l0.431 0.213c0.45,0.146 0.901,0.076 1.4,0.345l0.288 0.214c0.325,0.227 0.164,0.154 0.323,0.181 0.141,0.023 0.771,-0.107 1.311,0.046 0.112,0.031 0.727,0.357 0.911,0.448l1.798 1.038c0.825,0.49 0.873,0.05 1.65,0.714l1.303 0.844c0.801,0.479 1.065,0.849 1.927,1.539l0.354 0.308c0.317,0.303 0.431,0.484 0.778,0.686 0.708,0.412 0.249,-0.09 0.763,0.58 0.667,0.868 0.374,0.359 1.086,1.034l0.244 0.25c0.031,0.036 0.123,0.137 0.155,0.173l1.237 1.518c0.802,0.932 -0.113,0.48 0.951,1.779 0.226,0.275 0.566,0.567 0.712,0.774 0.307,0.436 0.255,0.545 0.014,0.845 1.035,-0.156 5.868,-2.129 10.598,-2.763 2.229,-0.299 3.804,-0.505 6.154,-0.684 2.111,-0.161 4.3,0.008 6.507,-0.101l0.686 -0.163c0.206,-0.016 0.491,0.003 0.702,0.004 1.594,0.003 2.852,-0.063 4.479,0.183 3.25,0.491 3.476,0.168 6.085,0.86 0.037,0.009 0.082,0.03 0.118,0.037 1.039,0.237 0.615,-0.324 1.889,0.211 0.036,0.015 0.075,0.042 0.111,0.055l1.017 0.176c1.221,0.046 3.278,0.238 4.076,0.619 0.974,0.465 0.71,0.622 2.255,0.657 0.313,0.933 -0.455,-0.55 -0.176,0.261l2.504 0.894c0.422,0.091 0.307,0.001 0.704,0.152 0.003,0 0.422,0.239 0.537,0.292 0.171,0.079 2.608,0.823 3.528,1.518 0.761,0.576 -0.132,0.222 1.064,0.605l2.03 1.136c0.684,0.563 -0.066,0.333 1.04,0.625 1.376,0.363 1.793,1.192 2.415,1.568l2.468 1.698c0.539,0.364 0.356,-0.052 0.706,-0.181 1.47,1.895 0.451,0.103 1.824,1.771l2.693 2.393c0.167,0.227 0.042,0.13 0.265,0.385 0.141,0.161 0.056,0.072 0.257,0.241 0.875,0.736 0.932,0.734 1.698,1.727l2.384 2.974c0.501,0.508 0.494,0.098 0.861,0.771l1.697 2.809c0.377,0.514 0.158,-0.047 0.677,0.934 0.14,0.266 0.012,0.075 0.178,0.31 1.161,1.645 0.221,0.349 1.073,1.966 0.017,0.034 0.037,0.075 0.053,0.107l0.102 0.218c0.97,1.924 0.376,0.929 0.847,2.628 0.124,0.45 0.296,0.733 0.498,1.1 0.435,0.787 1.472,3.684 1.512,4.443 0.02,0.384 -0.147,0.54 -0.04,1.147 0.072,0.41 0.372,0.81 0.45,1.149l0.056 4.091 1.701 0.043c-0.168,0.053 -0.286,0.055 -0.463,0.109l-3.208 0.626 5.797 -0.059c1.517,-0.431 8.975,0.039 11.295,0.528l0.818 0.192c0.04,0.013 0.083,0.032 0.124,0.045l1.261 0.289c0.598,0.163 0.151,0.181 0.976,0.365 1.746,0.39 0.7,-0.282 2.715,0.681 0.038,0.018 0.08,0.04 0.118,0.058l0.391 0.145c0.23,0.07 0.608,0.113 0.858,0.19 0.304,0.578 -0.476,0.678 0.901,1.137l0.959 0.388c0.646,0.296 0.178,0.128 1.215,0.215 0.717,0.06 0.483,-0.002 0.924,0.361 1.001,0.825 0.852,0.512 1.825,1.174 1.156,0.785 0.306,0.503 1.366,0.971 1.178,0.521 1.437,1.208 2.22,1.721 1.226,0.801 0.352,0.777 1.397,1.248 1.173,0.528 0.593,0.52 1.366,0.665 0.132,0.025 0.315,0.013 0.454,0.016 0.068,0.614 0.364,0.859 0.782,1.167 1.098,0.809 0.385,0.503 1.259,1.627l1.036 1.23c0.973,1.401 0.469,0.116 1.314,2.202 0.092,0.229 0.235,0.557 0.352,0.773 1.157,2.12 0.399,0.601 0.366,2.381 -0.043,2.27 1.255,1.431 1.325,1.924l4.426 -0.838c7.091,-1.389 16.7,-0.938 23.582,0.903l7.896 2.389c1.224,-2.104 3.247,-4.093 5.089,-5.679 0.025,-0.022 0.063,-0.054 0.089,-0.077l9.943 -5.892c1.093,-0.466 2.761,-1.052 4.062,-1.345 4.637,-1.045 5.016,-1.043 9.841,-1.334 1.254,-0.476 10.454,-0.246 13.316,0.425 0.903,0.211 1.718,0.078 2.674,0.187 1.903,0.213 2.842,0.904 4.79,0.904 0.302,0.938 1.886,0.621 2.832,0.621 -0.02,0.214 -0.317,0.282 -0.197,0.603l2.278 0.847c0.773,0.327 0.463,1.13 2.113,0.682 0.038,0.199 0.09,-0.226 -0.116,0.164 -0.016,0.032 -0.126,0.198 -0.205,0.448 0.888,-0.103 0.682,-0.158 1.189,0.459 0.445,0.543 0.042,0.234 0.589,0.485 0.041,0.02 0.09,0.032 0.134,0.049l0.268 0.08c0.659,0.238 0.076,-0.008 0.79,0.614 0.62,0.541 0.853,0.258 1.536,1.133l1.465 0.239 0.006 1.098 0.907 0.555c0.226,0.198 0.05,0.056 0.264,0.336l0.374 0.457 1.261 0.002c-0.721,0.603 -0.219,1.682 0.877,1.682 0,1.332 0.525,0.421 0.539,1.972 1.179,0.015 1.395,0.658 1.398,1.695l0.873 0.031c0,1.37 0.761,2.25 1.932,2.878 -0.454,0.318 -0.288,-0.024 -0.526,0.611 0.699,0.556 0.53,0.766 0.533,1.863l0.602 0.517c0.027,0.034 0.319,0.527 0.323,0.54 0.228,0.77 0.084,-0.276 0.001,0.213 -0.065,0.386 -0.156,0.44 -0.009,0.874 0.585,1.727 0.487,1.051 0.487,3.029 1.61,0 2.901,0.277 4.481,0.066 0.636,-0.084 1.433,-0.112 2.126,-0.058l1.82 0.172c-1.376,0.172 -2.673,0.181 -4.241,0.18 0.491,0.448 -0.076,0.082 0.509,0.308 0.787,0.303 2.504,0.096 3.348,0.093l3.512 -0.14c0.018,-0.039 0.025,-0.098 0.028,-0.12l-0.028 -0.347c0.544,0.015 0.636,0.107 1.101,0.206 0.538,0.117 0.68,0.099 1.358,0.099l0.352 0.756c0.782,0.026 0.38,0.139 1.187,0.091 0.421,-0.024 0.75,-0.082 1.272,-0.082l-0.029 0.205c0.33,0.581 1.08,0.33 1.588,0.887 0.491,0.537 1.686,0.881 3.063,1.656l1.072 0.582c0.03,0.02 0.067,0.051 0.099,0.071 0.033,0.021 0.073,0.049 0.107,0.069 0.035,0.019 0.079,0.043 0.115,0.061 2.181,1.11 1.897,1.302 2.64,1.679 0.79,0.401 0.61,0.535 1.128,1.125l1.22 1.089c0.702,0.635 1.39,1.556 1.823,2.357l1.144 1.599c0.146,0.275 0.065,0.164 0.193,0.437l1.473 3.46c0.129,0.345 0.265,0.317 0.375,0.725 0.139,0.511 0.174,1.336 0.258,1.91 0.095,0.639 0.261,1.271 -0.066,1.859 1.272,-0.169 7.9,-3.372 17.695,-3.997 2.977,-0.19 4.856,-0.075 7.142,-0.174 1.498,-0.432 12.171,0.221 13.778,0.652l0.246 0.084c0.044,0.011 0.086,0.029 0.132,0.039 0.417,0.096 0.575,0.076 1.007,0.084l0 0.256c0.869,0.012 1.666,0.093 2.459,0.453l0.314 0.175c0.033,0.015 0.077,0.039 0.112,0.055 1.132,0.496 1.385,0.158 2.446,0.625 0.928,0.407 0.844,0.162 2.051,0.26 0.629,0.051 0.939,0.327 2.278,0.74 0.775,0.239 1.147,0.129 1.729,0.599 1.185,0.961 -1.016,-0.599 0.274,0.231 0.143,0.092 1.181,0.372 2.633,1.229 1.126,0.665 1.262,0.135 2.001,0.699l0.417 0.389c0.318,0.324 0.431,0.411 0.468,0.978 0.52,-0.17 0.257,-0.265 0.625,-0.438l-0.006 0.44c0.375,-0.324 0.041,0.083 0.255,-0.367l1.115 -4.22c0.256,-0.827 0.515,-1.418 0.718,-2.171 0.964,-3.567 5.51,-9.944 7.995,-12.572 0.963,-1.018 1.961,-2.035 2.977,-2.926l5.911 -4.483c2.46,-1.516 6.629,-3.521 9.218,-4.503 2.673,-1.013 6.755,-2.066 9.834,-2.471 5.288,-0.696 12.05,-1 17.384,0.122 0.9,0.19 4.416,1.101 5.105,0.954 -0.158,-0.998 -0.425,-1.722 -0.541,-2.875 -0.099,-0.992 -0.26,-1.977 -0.299,-2.901 -0.097,-2.177 0.095,-4.34 0.308,-6.282 0.321,-2.936 0.661,-3.466 1.084,-5.664 0.191,-0.99 0.449,-1.826 0.752,-2.703 0.95,-2.758 4.075,-9.421 5.78,-11.294l2.293 -3.069c0.309,-0.353 0.49,-0.523 0.792,-0.837 0.073,-0.075 0.152,-0.157 0.239,-0.245l8.313 -7.456c2.444,-1.602 4.89,-3.296 7.574,-4.565l1.272 -0.602c1.759,-0.952 4.638,-1.883 6.515,-2.558 1.934,-0.696 6.573,-1.746 8.849,-2.11 2.531,-0.404 7.668,-0.86 10.307,-0.797 1.213,0.029 2.39,0.16 3.577,0.137 1.046,-0.562 4.536,0.028 5.629,-0.217 0.839,-0.188 4.134,0.254 5.065,0.42 0.514,0.091 0.9,0.045 1.483,0.114 0.404,0.048 0.714,0.19 1.104,0.243 0.564,0.078 1.048,-0.007 1.556,0.04l0.945 0.339c0.687,0.304 0.306,0.173 1.302,0.302 1.577,0.203 2.77,0.337 2.464,1.275 0.877,0.015 0.827,-0.071 1.526,0.222 0.869,0.364 0.619,0.132 1.469,0.29 0.536,0.101 0.043,-0.078 0.538,0.242 0.851,0.547 0.659,0.324 1.679,0.7l3.353 1.459c0.558,0.205 -0.342,-0.132 0.263,0.131 0.031,0.014 0.077,0.038 0.111,0.051 1.391,0.564 0.16,-0.186 1.103,0.55l4.613 2.709c0.231,0.214 0.142,0.331 0.69,0.579 0.958,0.433 0.311,0.209 1.024,0.707 1.189,0.832 0.463,-0.277 0.641,0.182 0.714,0.415 0.045,0.111 0.587,0.703 0.4,0.437 0.385,0.254 0.83,0.522 0.03,0.017 0.073,0.043 0.101,0.061l1.896 1.702c0.498,0.484 0.091,0.17 0.725,0.466 1.021,0.477 0.32,0.036 0.665,0.597l2.197 2.245c0.038,0.029 0.151,0.108 0.185,0.141 0.025,0.021 0.063,0.052 0.085,0.076 0.023,0.023 0.056,0.057 0.077,0.081 0.332,0.386 0.185,0.535 0.81,0.995 0.236,0.173 0.532,0.29 0.852,0.902 0.677,1.298 0.093,0.529 1.353,1.145 0.016,1.959 0.742,1.816 1.265,2.552l0.913 1.491c0.157,0.3 0.007,0.084 0.245,0.412l1.577 1.282c-1.094,0.111 -0.145,-0.011 -0.574,0.267 2.381,-0.067 4.983,-1.98 14.736,-1.078 6.746,0.625 3.628,1.251 6.004,-1.616 2.112,-2.548 4.728,-5.843 7.651,-7.733l1.054 -0.75c1.324,-1.181 5.54,-3.415 7.429,-4.247 2.184,-0.962 6.049,-2.363 8.429,-2.757 9.018,-1.487 5.899,-0.708 13.943,-0.915l-1.002 -0.298c1.869,-0.034 3.402,0.108 5.157,0.171l3.511 0.314c1.277,0.36 0.945,-0.071 2.226,0.345 0.388,0.125 0.57,0.157 0.942,0.244l1.406 0.447c0.004,0.001 0.481,0.022 0.51,0.022 1.62,0.048 1.043,0.006 2.161,0.43 0.666,0.251 1.19,0.357 2.065,0.392 0.119,0.271 0.15,0.302 0.678,0.569 0.441,0.224 0.447,0.278 1.035,0.484 0.168,0.06 0.39,0.133 0.656,0.199 1.151,0.284 0.766,0.119 1.074,0.577 0.025,0.037 0.103,0.172 0.12,0.199 0.012,0.021 0.053,0.121 0.062,0.098 0.009,-0.022 0.037,0.068 0.062,0.097 2.127,0.059 0.994,0.326 3.338,1.261 0.101,0.26 -0.116,0.045 -0.163,0.572 0.244,0.006 0.796,-0.002 1.006,0.052 0.724,0.18 0.81,0.738 1.264,1.176l1.53 0.053c0.127,0.262 0.11,0.213 0.239,0.394 0.012,0.018 0.221,0.273 0.222,0.273 0.237,0.211 0.109,0.11 0.426,0.247 1.156,0.5 -0.264,-0.194 0.396,0.114l-0.173 1.355c0.594,-0.45 0.669,-1.747 0.973,-2.506l2.619 -5.957c0.018,-0.033 0.041,-0.073 0.058,-0.105l5.385 -8.315c1.602,-2.375 4.094,-4.88 6.218,-6.824l2.214 -2.047c0.029,-0.023 0.069,-0.053 0.099,-0.076l0.196 -0.15c2.387,-1.812 4.064,-3.308 6.898,-4.988 0.433,-0.256 0.69,-0.456 1.018,-0.645 0.616,-0.357 0.502,-0.172 1.078,-0.577l6.627 -3.414c0.703,-0.328 1.708,-0.661 2.402,-0.971l5.031 -1.726c0.889,-0.246 1.723,-0.623 2.587,-0.791 3.739,-0.723 4.24,-1.098 8.582,-1.678 2.099,-0.279 4.218,-0.322 6.399,-0.594 2.138,-0.267 4.763,0.062 6.971,-0.054 0.035,-0.02 0.088,-0.039 0.115,-0.047l0.254 -0.076c1.337,-0.259 7.713,0.21 8.903,0.306 0.846,0.068 1.084,0.243 2.119,0.292 1.893,0.09 4.596,0.288 6.344,0.765 0.497,0.134 0.29,0.105 0.467,0.176l0.237 0.102c0.04,0.015 0.083,0.034 0.125,0.048 0.466,0.148 0.532,0.11 1.077,0.169 1.234,0.133 0.865,0.358 1.797,0.548 1.542,0.31 0.357,0.001 1.152,0.354l1.649 0.424c1.789,0.286 0.306,0.213 1.722,0.497l2.818 0.755c0.301,0.102 0.536,0.269 0.785,0.371 2.16,0.876 1.322,1.061 2.072,1.296l-0.033 -1.154c0.018,0.43 0.014,0.853 0.025,1.28l0.253 1.204c0.101,-4.186 0.345,-6.642 2.021,-10.382l1.352 -2.643 3.734 -4.686c1.819,-1.5 2.671,-2.475 4.687,-3.72 4.115,-2.54 7.682,-3.926 12.804,-4.628 2.703,-0.371 5.735,-0.237 8.426,0.014 3.265,0.305 5.757,1.501 7.394,1.594 0.095,-4.007 1.266,-8.42 3.124,-11.973l1.826 -3.318c2.094,-3.635 4.03,-5.165 6.532,-7.761 1.715,-1.781 5.346,-4.17 7.661,-5.433 1.998,-1.089 4.226,-2.207 6.466,-2.951 0.409,-0.136 0.655,-0.163 1.033,-0.305 3.783,-1.433 8.543,-2.276 12.737,-2.381 2.054,-0.053 3.548,-0.064 5.623,0.073 2.231,0.147 3.452,0.436 4.917,0.554l0 -58.413c-0.732,0.257 -2.37,1.596 -3.117,2.161 -0.373,0.281 -0.575,0.499 -0.924,0.732 -1.615,1.081 -6.124,5.305 -7.137,6.625l-3.048 3.639c-1.102,-0.275 -3.333,-1.592 -5.045,-2.163 -6.762,-2.254 -12.749,-2.086 -19.202,-0.289 -5.319,1.482 -12.013,6.264 -14.383,10.558 -0.333,0.605 -0.7,1.602 -1.415,2.11 -1.438,-0.36 -3.261,-1.279 -5.089,-1.808 -5.042,-1.459 -13.356,-2.787 -18.552,-2.129 -5.1,0.646 -3.615,0.205 -9.034,1.328 -10.253,2.125 -21.835,9.539 -27.052,17.47 -0.571,0.869 -1.18,1.516 -1.97,2.864 -0.736,1.255 -1.671,2.83 -2.185,4.227 -0.621,1.688 -1.175,2.798 -1.696,4.633 -0.257,0.908 -0.785,4.366 -1.164,4.989 -0.696,-0.32 -2.029,-2.088 -2.581,-2.702l-2.746 -2.501c-2.426,-2.456 -4.421,-3.715 -7.244,-5.764 -0.47,-0.341 -1.045,-0.649 -1.637,-1.013 -2.498,-1.537 -4.038,-2.415 -6.822,-3.682 -6.77,-3.08 -13.044,-5.01 -20.794,-5.928 -3.487,-0.413 -6.889,-0.554 -10.515,-0.522 -3.723,0.034 -6.618,0.43 -10.061,0.904 -5.515,0.761 -11.747,2.807 -16.68,4.92 -6.93,2.968 -13.795,7.664 -18.738,12.578 -0.869,0.865 -1.731,1.684 -2.528,2.688 -0.662,0.833 -1.6,1.706 -2.335,2.7 -1.53,2.07 -2.857,3.916 -4.103,6.063 -0.566,0.975 -1.239,2.165 -1.793,3.332l-1.546 3.47c-0.809,0.121 -2.449,-0.393 -3.599,-0.567 -1.207,-0.181 -2.243,-0.336 -3.444,-0.49 -2.506,-0.32 -5.142,-0.465 -7.71,-0.465 -6.621,0 -12.015,0.796 -17.922,2.381 -0.974,0.261 -2.046,0.6 -2.978,0.92 -5.589,1.924 -10.994,4.612 -15.342,7.749l-4.356 3.385c-2.598,2.031 -7.13,7.023 -8.943,9.794l-2.195 3.43c-1.024,1.549 -3.527,7.336 -3.948,8.951 -0.473,1.817 -1.122,3.767 -1.448,5.84 -0.528,3.381 -0.332,4.185 -0.629,6.47 -0.605,-0.036 -6.101,-2.083 -8.758,-2.67 -7.605,-1.68 -13.421,-1.967 -21.084,-1.032 -5.172,0.63 -6.416,1.511 -9.31,2.097z"/>
  <path fill="#B8DEF1" d="M297.154 116.953c1.632,-0.101 3.457,-0.227 5.038,-0.22 1.761,0.008 3.302,0.224 4.971,0.24 0.259,-0.22 0.655,-0.298 1.344,-0.296 2.62,0.01 9.124,0.52 11.221,1.085 0.638,0.171 1.005,0.097 1.499,0.373 0.638,0.356 -0.025,0.299 1.159,0.37 2.024,0.123 1.8,0.796 3.521,1.043l0.69 0.171c0.048,0.021 0.165,0.093 0.211,0.114l0.841 0.332c0.011,0.005 0.446,0.19 0.473,0.203 0.402,0.19 0.554,0.326 1.035,0.471 1.601,0.481 1.039,0.498 2.101,0.926l5.282 2.595c0.03,0.019 0.072,0.046 0.102,0.064l4.308 2.671c2.909,1.971 1.53,1.241 2.429,2.021 0.503,0.435 0.394,-0.033 0.946,0.556 0.52,0.554 -0.124,0.339 0.655,0.795 0.5,0.292 0.434,-0.033 0.888,0.617 0.365,0.52 0.023,0.319 0.68,0.774l0.742 0.58c0.026,0.023 0.062,0.055 0.089,0.076 0.903,0.779 1.614,1.847 2.465,2.595l0.748 0.889c0.35,0.601 0.511,0.528 0.979,1.13 0.247,0.316 0.293,0.473 0.62,0.834l0.672 0.797c0.1,0.14 0.265,0.375 0.333,0.484 0.412,0.652 -0.095,0.465 0.494,1.227 0.529,0.684 1.644,1.779 1.857,2.536 0.143,0.509 0.074,0.676 0.253,1.152l1.275 1.943c0.02,0.028 0.047,0.066 0.067,0.094 0.028,0.04 0.104,0.153 0.132,0.192l0.132 0.189c0.388,0.594 0.238,0.524 0.391,1.056 0.011,0.041 0.026,0.081 0.038,0.121 0.012,0.037 0.031,0.077 0.043,0.114 0.014,0.046 0.066,0.17 0.079,0.213 0.008,0.03 0.019,0.075 0.027,0.104l0.028 0.2c0.041,0.233 -0.063,0.003 0.077,0.375 0.257,0.683 0.571,1.33 0.608,2.091 0.041,0.862 0.883,1.82 0.967,3.109 0.035,0.552 0.095,0.674 0.166,1.23 0.069,0.54 0.025,1.097 0.25,1.604 0.014,0.032 0.039,0.07 0.056,0.1 0.733,1.264 0.202,-0.399 0.39,0.44 0,0.995 -0.199,2.393 0.129,3.248 0.108,0.279 0.2,-0.178 0.235,0.723 0.032,0.809 -0.194,1.179 -0.055,2.027 0.312,1.927 0.058,2.499 -0.283,3.967 -0.16,0.688 -0.371,1.094 -0.371,1.996 -0.997,0.026 -0.84,0.149 -1.663,0.207l1.029 -0.019 -0.426 0.438 5.655 -0.777c1.903,-0.214 4.319,-0.295 6.265,-0.161 11.346,0.781 19.486,3.318 28.217,9.516 3.233,2.296 4.002,3.327 6.442,5.717l3.894 4.988c1.645,2.165 4.062,7.295 4.812,10.04 0.454,1.666 0.785,3.057 1.082,4.712 0.284,1.588 0.134,4.003 0.486,5.405 1.029,-0.004 2.202,-0.266 3.302,-0.383 4.141,-0.438 6.428,-0.333 10.689,0.306 3.114,0.469 7.283,1.753 10.112,2.999 2.832,1.248 0.829,0.363 5.007,-2.412l1.273 -0.741c12.149,-6.948 21.2,-1.884 22.773,-2.17 0.646,-5.014 1.33,-7.741 3.632,-11.665 2.995,-5.111 6.986,-8.65 12.1,-11.65 3.31,-1.942 8.148,-3.463 12.252,-4.177 2.888,-0.503 5.16,-0.36 8.238,-0.434 0.151,-0.354 4.42,-0.148 5.127,-0.11 1.876,0.103 4.598,0.432 6.307,0.916 0.698,0.196 0.331,0.276 0.935,0.364 0.611,0.09 0.695,-0.088 1.251,0.182l1.27 0.707c1.862,0.805 0.73,-0.111 2.703,0.722 0.38,0.16 0.607,0.19 0.98,0.368l3.174 1.835c0.026,0.021 0.062,0.054 0.088,0.075l1.059 0.601c1.123,0.584 2.149,1.398 3.266,2.206l0.785 0.695c0.626,0.495 0.4,0.483 0.965,0.839 0.041,0.025 0.174,0.091 0.216,0.119l0.516 0.476c1.634,1.76 -0.028,0.419 1.486,1.75l0.696 0.788c2.894,-0.586 4.138,-1.467 9.31,-2.097 7.663,-0.935 13.48,-0.647 21.084,1.032 2.657,0.587 8.153,2.634 8.758,2.67 0.297,-2.284 0.101,-3.088 0.63,-6.47 0.325,-2.073 0.974,-4.023 1.447,-5.84 0.421,-1.615 2.924,-7.402 3.948,-8.95l2.195 -3.431c1.814,-2.77 6.345,-7.763 8.944,-9.794l4.355 -3.385c4.348,-3.137 9.753,-5.825 15.342,-7.748 0.932,-0.321 2.004,-0.66 2.978,-0.92 5.907,-1.586 11.301,-2.382 17.922,-2.382 2.569,0 5.204,0.145 7.71,0.465 1.201,0.154 2.237,0.309 3.444,0.49 1.151,0.174 2.791,0.689 3.599,0.567l1.547 -3.47c0.553,-1.167 1.226,-2.357 1.792,-3.332 1.246,-2.147 2.574,-3.993 4.103,-6.062 0.735,-0.995 1.673,-1.868 2.336,-2.701 0.796,-1.004 1.658,-1.823 2.528,-2.688 4.942,-4.914 11.808,-9.61 18.737,-12.577 4.933,-2.114 11.165,-4.16 16.681,-4.921 3.443,-0.474 6.338,-0.87 10.06,-0.904 3.627,-0.032 7.028,0.109 10.515,0.522 7.75,0.918 14.024,2.848 20.794,5.928 2.784,1.267 4.324,2.145 6.822,3.682 0.592,0.364 1.167,0.672 1.637,1.013 2.823,2.049 4.818,3.308 7.244,5.764l2.746 2.501c0.553,0.614 1.885,2.382 2.582,2.702 0.379,-0.622 0.906,-4.081 1.163,-4.989 0.522,-1.835 1.076,-2.945 1.696,-4.633 0.515,-1.397 1.45,-2.971 2.186,-4.227 0.789,-1.348 1.398,-1.995 1.97,-2.864 5.217,-7.931 16.799,-15.345 27.052,-17.469 5.419,-1.123 3.933,-0.683 9.033,-1.329 5.196,-0.657 13.511,0.67 18.552,2.129 1.829,0.529 3.651,1.448 5.089,1.808 0.716,-0.508 1.082,-1.505 1.415,-2.11 2.37,-4.294 9.064,-9.076 14.383,-10.558 6.453,-1.797 12.44,-1.965 19.202,0.289 1.712,0.571 3.943,1.888 5.045,2.163l3.048 -3.639c1.013,-1.32 5.522,-5.543 7.138,-6.625 0.348,-0.232 0.551,-0.451 0.924,-0.732 0.746,-0.565 2.384,-1.903 3.117,-2.161l0 -6.571c-2.618,-0.412 -4.959,-0.93 -7.708,-1.299 -6.891,-0.924 -14.464,-0.612 -21.244,0.596 -1.1,0.196 -2.58,0.596 -3.717,0.725 -0.838,-1.184 -3.299,-8.426 -8.662,-14.671l-2.018 -2.38c-0.17,-0.228 -0.476,-0.585 -0.667,-0.778l-4.168 -4.031c-0.118,-0.11 -0.191,-0.189 -0.333,-0.317l-2.373 -2.068c-1.537,-1.625 -3.705,-2.903 -5.55,-4.201l-10.055 -5.61c-3.062,-1.577 -7.851,-3.16 -11.166,-4.033 -10.803,-2.844 -23.138,-3.765 -33.96,-1.952 -2.629,0.441 -7.764,1.419 -10.078,2.25 -6.697,2.405 -5.61,1.755 -12.98,5.219 -5.071,2.384 -10.185,6.068 -14.215,9.626 -2.095,1.846 -4.225,3.808 -5.898,5.885 -0.699,0.87 -1.903,2.566 -2.753,3.243 -3.023,-0.843 -3.489,-2.675 -11.946,-3.86 -5.016,-0.704 -10.281,-0.116 -14.462,1.242 -4.356,1.414 -6.953,3.063 -10.055,5.447 -1.503,1.156 -2.812,2.56 -4.011,4.007l-0.64 0.82c-0.256,0.342 -0.45,0.619 -0.739,1.036 -0.56,0.806 -0.845,1.517 -1.354,2.331 -1.628,-0.075 -10.036,-5.047 -26.169,-4.209 -8.67,0.449 -17.168,3.362 -23.489,6.856 -1.647,0.911 -2.792,1.763 -4.55,2.911 -4.415,2.88 -7.918,6.822 -10.993,10.775 -4.01,5.153 -7.788,14.459 -7.617,20.606 -8.425,-1.087 -14.992,0.159 -21.242,3.059 -1.091,0.505 -2.806,1.507 -3.794,2.197 -4.326,3.016 -5.787,4.572 -8.756,8.811 -1.714,0.024 -7.847,-2.877 -16.978,-1.509 -9.322,1.397 -18.175,6.273 -22.768,13.467 -0.316,0.497 -0.584,0.885 -0.911,1.365 -2.011,2.935 -3.486,8.063 -3.545,11.424 -0.774,-0.016 -2.154,-0.499 -2.921,-0.706 -12.094,-3.276 -25.583,3.829 -28.076,14.988 -0.495,2.212 -0.192,3.961 -0.237,6.086 -0.768,-0.213 -0.395,-0.164 -1.011,-0.496 -0.327,-0.176 -0.409,-0.173 -0.878,-0.448 -2.772,-1.629 -7.987,-3.514 -11.332,-4.332 -7.453,-1.827 -9.686,-1.636 -16.904,-1.751 -4.389,-0.069 -9.302,1.186 -13.459,2.27 -6.305,1.644 -12.321,5.056 -17.113,8.802 -1.027,0.803 -1.757,1.624 -2.795,2.309 -1.229,-0.917 -1.999,-2.292 -3.106,-3.267 -0.408,-0.359 -0.712,-0.56 -1.059,-0.902l-2.14 -1.959c-0.444,-0.343 -0.797,-0.522 -1.273,-0.894 -2.249,-1.754 -3.421,-2.158 -4.423,-2.842 -0.283,-0.193 -0.232,-0.22 -0.603,-0.427 -8.474,-4.737 -19.73,-6.778 -29.807,-5.434 -0.944,0.125 -6.763,1.272 -6.967,1.231 -0.002,-0.729 0.334,-2.714 0.44,-3.698 0.815,-7.53 -0.964,-15.289 -4.694,-22.137 -1.606,-2.948 -3.59,-5.627 -5.761,-8.133l-4.733 -4.596c-1.293,-1.318 -3.956,-3.041 -5.398,-4.017 -2.178,-1.474 -7.133,-3.97 -9.575,-4.827 -1.177,-0.413 -2.474,-0.744 -3.685,-1.185 -7.607,-2.774 -18.718,-2.993 -26.488,-1.693 -6.66,1.113 -12.798,3.13 -18.037,6.372l-5.694 3.767c-0.875,0.654 -1.853,1.248 -2.532,2.18z"/>
  <path fill="#B8DEF1" d="M0.802 28.274l0 50.819c0.636,0.028 1.316,0.185 1.742,0.359 0.273,0.112 0.288,0.155 0.668,0.328l0.84 0.33c0.036,0.016 0.08,0.038 0.115,0.054l8.688 4.061c0.944,0.308 2.26,1.476 2.951,2.023 0.337,0.266 0.011,0.022 0.292,0.206 1.168,0.763 2.094,1.816 2.988,2.443l1.872 1.735c0.022,0.025 0.051,0.062 0.073,0.088 0.353,0.429 0.44,0.784 0.792,1.147l2.145 2.718c0.534,0.726 0.897,0.756 1.263,1.651 0.977,2.391 0.71,0.953 1.405,2.448 0.349,0.75 0.677,0.941 0.656,1.41 -0.03,0.685 0.38,0.406 0.848,2.172 0.302,1.139 0.494,1.05 0.564,1.284 0.197,0.665 -0.468,-0.423 0.326,1.003 0.435,0.78 -0.227,0.128 0.266,0.982l0.468 2.042c0.085,1.492 0.276,0.742 0.5,1.406 0.061,0.18 0.033,0.53 0.042,0.788l-0.387 0.273c0.414,0.227 0.262,-0.222 0.215,0.238 1.334,-0.031 2.538,-0.457 4.032,-0.469 1.563,-0.013 3.127,0.038 4.682,0.039 -0.416,-0.247 -0.599,-0.28 -1.378,-0.291 0.222,0.199 2.505,0.1 3.026,0.102 1.007,0.002 3.95,0.045 4.897,0.253 0.78,0.172 0.273,0.299 1.24,0.361 2.057,0.132 3.698,0.696 5.547,1.331l1.793 0.739c1.231,0.572 -0.133,0.17 1.768,0.75 0.759,0.231 0.484,0.374 0.924,0.736 0.415,0.34 0.65,0.231 1.176,0.499 0.676,0.346 0.122,0.337 1.444,1.036l2.365 1.776c0.228,0.256 0.057,0.142 0.357,0.452l0.866 0.775c0.025,0.023 0.061,0.055 0.085,0.079 0.751,0.741 0.251,0.635 1.068,1.206 0.215,0.151 0.068,-0.075 0.463,0.369l1.078 1.353c0.76,0.873 0.458,1.203 0.755,1.64 0.458,0.672 0.748,-0.162 1.097,1.351 0.155,0.676 0.118,0.806 0.51,1.378l0.98 1.915c0.125,0.569 -0.24,0.948 0.441,1.735 0.022,0.026 0.059,0.06 0.081,0.084 0.528,0.585 0.065,0.459 0.283,1.465 0.171,0.789 0.272,0.085 0.24,0.885 -0.03,0.745 -0.098,1.529 -0.098,2.353 0.631,0.281 0.496,0.035 0.515,0.389l-0.018 0.143c-0.009,0.177 0.069,-0.214 0.002,0.365 1.158,-0.283 5.891,-2.545 8.601,-3.184 3.745,-0.883 4.422,-1.443 9.624,-2.213 1.106,-0.164 2.292,-0.366 3.461,-0.5 1.329,-0.152 2.571,-0.144 3.91,-0.279 8.637,-0.878 20.52,1.156 27.958,3.77 3.419,1.201 7.735,3.026 10.698,4.755 0.516,0.301 0.708,0.491 1.152,0.714 2.272,1.141 6.152,3.918 8.089,5.455 0.674,0.534 1.269,1.17 2.002,1.775l1.219 1.079c0.026,0.025 0.063,0.057 0.089,0.081 1.048,1.007 2.747,2.591 3.462,3.552l1.256 1.495c0.138,0.169 0.287,0.303 0.477,0.508 1.034,1.118 3.061,4.092 3.979,5.414 0.525,0.756 0.92,1.686 1.396,2.403 0.825,-0.236 1.49,-1.028 2.218,-1.543 6.105,-4.324 11.824,-6.513 19.757,-7.302 4.382,-0.435 10.304,0.122 14.36,1.333 1.63,0.486 4.191,1.255 5.591,1.969l4.705 2.526c0.06,0.029 0.104,0.046 0.163,0.072l0.368 0.149c0.361,-0.919 0.574,-1.116 1.049,-1.85 0.122,-0.189 0.272,-0.468 0.413,-0.696 2.143,-3.483 7.231,-7.769 11.103,-9.904 2.061,-1.137 3.557,-1.757 6.01,-2.722 7.724,-3.038 18.587,-2.945 26.513,-0.188 0.529,0.184 1.025,0.374 1.598,0.588 0.289,0.109 0.416,0.148 0.724,0.263 0.475,0.179 0.405,0.203 0.89,0.296 0.665,-0.571 1.057,-1.827 1.444,-2.557 1.073,-2.031 3.706,-5.5 5.318,-7.306 1.433,-1.605 2.994,-2.966 4.271,-4.23 3.515,-3.479 11.075,-7.914 16.146,-9.811 2.306,-0.863 7.565,-2.57 10.187,-3.007 0.948,-0.158 3.41,-0.354 3.939,-0.664 -0.951,0.186 -1.124,0.314 -2.01,0.166 -0.436,-0.635 -0.697,-1.06 -1.08,-1.723 -0.397,-0.685 -0.862,-1.105 -1.331,-1.771 -0.793,-1.125 -1.894,-2.145 -2.892,-3.131 -0.541,-0.536 -0.753,-0.863 -1.441,-1.486 -0.272,-0.247 -0.488,-0.447 -0.796,-0.701l-3.5 -2.592c-0.471,-0.293 -0.603,-0.296 -1.071,-0.594 -1.727,-1.101 -3.905,-2.403 -5.955,-3.254 -13.928,-5.777 -30.478,-4.317 -42.562,3.742 -2.303,1.536 -3.148,2.376 -5.109,4.119 -0.401,0.357 -0.358,0.351 -0.727,0.739 -0.506,0.53 -0.554,0.587 -0.933,0.701 -0.689,-1.808 -0.893,-3.943 -2.02,-6.463 -1.25,-2.794 -2.602,-6.048 -4.286,-8.657 -1.06,-1.641 -3.294,-4.836 -4.566,-6.28 -1.176,-1.335 -2.379,-2.753 -3.709,-3.956l-7.924 -6.561c-0.377,-0.278 -0.884,-0.621 -1.362,-0.954 -1.65,-1.146 -3.864,-2.336 -5.673,-3.294 -5.132,-2.716 -10.603,-4.725 -16.696,-6.073 -4.122,-0.912 -12.541,-2.191 -16.674,-1.806 -2.96,0.277 -5.448,0.129 -8.792,0.629 -5.035,0.753 -10.136,1.83 -14.797,3.598l-6.469 2.763 -3.807 2c-0.112,-0.222 -0.049,0.027 -0.129,-0.396 -0.012,-0.066 -0.027,-0.331 -0.026,-0.386l0.15 -2.223c-0.005,-0.884 -0.145,-2.127 -0.266,-3.006 -0.575,-4.2 -1.723,-6.009 -3.733,-9.424l-1.132 -1.47c-0.027,-0.035 -0.16,-0.218 -0.209,-0.282l-0.864 -1.06c-0.767,-1.027 -0.858,-0.756 -1.78,-1.661 -3.053,-2.996 -7.918,-5.623 -12.283,-6.741 -2.418,-0.62 -4.638,-0.695 -5.898,-0.992 -2.388,-0.182 -5.353,-0.089 -7.656,0.254 -1.829,0.272 -5.628,1.557 -5.966,1.544 -0.255,-0.858 -0.304,-2.184 -0.48,-3.152 -0.629,-3.466 -2.038,-8.116 -4.061,-11.105l-1.516 -2.366c-0.561,-0.775 -1.221,-1.601 -1.701,-2.186l-5.972 -5.807c-0.714,-0.488 -1.508,-1.172 -2.283,-1.676 -4.281,-2.787 -8.712,-4.918 -13.995,-6.179 -9.774,-2.332 -20.39,-1.579 -28.435,1.736 -3.918,1.614 -7.234,3.344 -10.237,5.764 -0.819,0.66 -1.435,1.097 -2.19,1.763 -2.096,1.848 -3.046,2.807 -4.763,5.024 -0.319,0.413 -0.399,0.707 -0.845,1.088l-5.329 -1.755c-1.627,-0.535 -4.157,-1.211 -5.912,-1.515z"/>
  <path fill="#B8DEF1" d="M301.61 228.105c1.931,-0.221 5.986,0.265 7.827,0.59 2.248,0.397 4.414,1.03 6.516,1.817 2.086,0.781 3.72,1.555 5.61,2.607 0.851,0.474 1.845,1.126 2.54,1.618 6.82,4.825 12.677,12.363 13.154,22.026 0.564,-0.005 2.166,-0.617 2.913,-0.794 2.268,-0.535 4.55,-0.931 6.992,-0.842 0.93,0.034 2.464,0.22 3.52,0.349 7.731,0.941 15.026,5.877 18.026,11.694 2.66,5.16 2.112,6.378 2.339,11.525l3.393 -1.732c0.546,-0.287 3.069,-1.489 3.497,-1.57 0.326,-0.588 0.16,-1.22 0.065,-1.859 -0.085,-0.575 -0.119,-1.399 -0.257,-1.909 -0.111,-0.408 -0.246,-0.381 -0.375,-0.727l-1.474 -3.459c-0.128,-0.273 -0.046,-0.162 -0.193,-0.437l-1.143 -1.599c-0.434,-0.8 -1.122,-1.722 -1.824,-2.357l-1.22 -1.089c-0.517,-0.589 -0.338,-0.724 -1.128,-1.125 -0.743,-0.377 -0.459,-0.569 -2.639,-1.679 -0.037,-0.018 -0.081,-0.042 -0.116,-0.061 -0.034,-0.02 -0.074,-0.048 -0.106,-0.069 -0.032,-0.019 -0.069,-0.051 -0.1,-0.071l-1.071 -0.581c-1.378,-0.776 -2.572,-1.12 -3.063,-1.657 -0.508,-0.556 -1.259,-0.305 -1.589,-0.886l0.029 -0.206c-0.522,0 -0.851,0.059 -1.271,0.083 -0.808,0.047 -0.405,-0.065 -1.188,-0.092l-0.352 -0.756c-0.677,0 -0.82,0.018 -1.359,-0.098 -0.463,-0.1 -0.556,-0.192 -1.1,-0.207l0.028 0.347c-0.003,0.022 -0.01,0.082 -0.028,0.12l-3.512 0.14c-0.844,0.003 -2.56,0.211 -3.347,-0.093 -0.585,-0.226 -0.019,0.14 -0.51,-0.308 1.568,0.001 2.867,-0.008 4.242,-0.179l-1.822 -0.172c-0.692,-0.055 -1.489,-0.026 -2.124,0.058 -1.58,0.21 -2.872,-0.067 -4.482,-0.067 0,-1.977 0.099,-1.303 -0.487,-3.028 -0.147,-0.434 -0.056,-0.489 0.009,-0.875 0.083,-0.489 0.227,0.557 -0.001,-0.213 -0.004,-0.013 -0.296,-0.506 -0.322,-0.539l-0.603 -0.517c-0.002,-1.097 0.166,-1.308 -0.533,-1.863 0.238,-0.635 0.072,-0.294 0.527,-0.611 -1.172,-0.629 -1.932,-1.508 -1.932,-2.879l-0.873 -0.03c-0.004,-1.038 -0.22,-1.681 -1.398,-1.695 -0.015,-1.551 -0.539,-0.641 -0.539,-1.973 -1.097,0 -1.599,-1.079 -0.879,-1.682l-1.26 -0.001 -0.374 -0.458c-0.214,-0.28 -0.038,-0.138 -0.264,-0.335l-0.907 -0.556 -0.005 -1.097 -1.466 -0.239c-0.683,-0.876 -0.916,-0.592 -1.536,-1.134 -0.714,-0.622 -0.131,-0.376 -0.79,-0.614l-0.268 -0.079c-0.043,-0.017 -0.092,-0.03 -0.135,-0.049 -0.546,-0.251 -0.142,0.058 -0.588,-0.485 -0.507,-0.617 -0.3,-0.563 -1.188,-0.459 0.079,-0.251 0.188,-0.418 0.205,-0.449 0.205,-0.389 0.154,0.036 0.115,-0.163 -1.65,0.447 -1.34,-0.356 -2.113,-0.683l-2.278 -0.846c-0.12,-0.322 0.177,-0.389 0.196,-0.604 -0.945,0 -2.529,0.317 -2.831,-0.62 -1.948,0 -2.888,-0.691 -4.789,-0.906 -0.957,-0.107 -1.772,0.026 -2.675,-0.186 -2.861,-0.67 -12.061,-0.9 -13.316,-0.425z"/>
  <path fill="#A5CEE2" d="M359.121 169.543l0.426 -0.439 -1.029 0.019c0.823,-0.057 0.666,-0.181 1.663,-0.207 0,-0.902 0.211,-1.308 0.371,-1.996 0.341,-1.468 0.595,-2.041 0.282,-3.967 -0.137,-0.848 0.088,-1.218 0.056,-2.027 -0.035,-0.901 -0.127,-0.444 -0.234,-0.723 -0.329,-0.856 -0.13,-2.253 -0.13,-3.248 -0.188,-0.838 0.342,0.824 -0.39,-0.44 -0.017,-0.03 -0.042,-0.068 -0.056,-0.1 -0.226,-0.507 -0.181,-1.065 -0.25,-1.605 -0.071,-0.554 -0.131,-0.677 -0.167,-1.229 -0.082,-1.289 -0.925,-2.247 -0.966,-3.109 -0.036,-0.761 -0.351,-1.408 -0.608,-2.09 -0.14,-0.373 -0.037,-0.143 -0.077,-0.376l-0.028 -0.2c-0.007,-0.029 -0.019,-0.073 -0.028,-0.103 -0.012,-0.044 -0.064,-0.168 -0.079,-0.215 -0.011,-0.036 -0.03,-0.076 -0.042,-0.113 -0.012,-0.04 -0.027,-0.079 -0.038,-0.12 -0.153,-0.533 -0.002,-0.463 -0.392,-1.057l-0.132 -0.189c-0.027,-0.039 -0.103,-0.153 -0.131,-0.191 -0.02,-0.028 -0.047,-0.067 -0.067,-0.095l-1.274 -1.943c-0.18,-0.475 -0.11,-0.642 -0.254,-1.152 -0.213,-0.757 -1.328,-1.852 -1.857,-2.536 -0.589,-0.762 -0.083,-0.574 -0.494,-1.227 -0.069,-0.108 -0.233,-0.344 -0.333,-0.484l-0.672 -0.798c-0.326,-0.36 -0.373,-0.516 -0.62,-0.833 -0.468,-0.602 -0.629,-0.529 -0.979,-1.131l-0.748 -0.887c-0.851,-0.75 -1.561,-1.817 -2.466,-2.595 -0.026,-0.022 -0.062,-0.054 -0.088,-0.076l-0.742 -0.581c-0.657,-0.455 -0.315,-0.254 -0.679,-0.774 -0.455,-0.65 -0.389,-0.324 -0.889,-0.617 -0.779,-0.456 -0.135,-0.241 -0.655,-0.796 -0.552,-0.588 -0.443,-0.12 -0.946,-0.556 -0.899,-0.779 0.48,-0.048 -2.429,-2.019l-4.308 -2.672c-0.03,-0.018 -0.072,-0.045 -0.102,-0.064l-5.281 -2.595c-1.063,-0.429 -0.501,-0.446 -2.102,-0.926 -0.481,-0.145 -0.633,-0.281 -1.035,-0.471 -0.027,-0.013 -0.462,-0.199 -0.472,-0.202l-0.842 -0.332c-0.046,-0.022 -0.164,-0.094 -0.212,-0.114l-0.689 -0.172c-1.721,-0.247 -1.497,-0.92 -3.521,-1.042 -1.184,-0.072 -0.521,-0.015 -1.159,-0.371 -0.494,-0.277 -0.861,-0.202 -1.498,-0.374 -2.098,-0.564 -8.602,-1.075 -11.222,-1.084 -0.689,-0.002 -1.085,0.076 -1.343,0.295 7.05,0.264 16.056,3.028 21.205,5.641 6.428,3.263 10.464,6.178 15.175,10.945 4.36,4.413 7.758,10.13 9.84,15.557 2.509,6.541 3.188,14.363 1.845,21.571l3.892 -0.765z"/>
  <path fill="#B8DEF1" d="M193.268 218.344l3.209 -0.625c0.176,-0.054 0.294,-0.056 0.462,-0.108l-1.701 -0.045 -0.055 -4.09c-0.079,-0.34 -0.379,-0.739 -0.451,-1.15 -0.106,-0.606 0.06,-0.763 0.04,-1.146 -0.04,-0.76 -1.077,-3.656 -1.511,-4.444 -0.203,-0.367 -0.374,-0.65 -0.499,-1.1 -0.471,-1.698 0.123,-0.704 -0.847,-2.628l-0.101 -0.218c-0.017,-0.033 -0.036,-0.073 -0.054,-0.106 -0.851,-1.618 0.088,-0.322 -1.073,-1.967 -0.166,-0.236 -0.037,-0.044 -0.178,-0.31 -0.518,-0.98 -0.299,-0.42 -0.676,-0.933l-1.697 -2.81c-0.367,-0.673 -0.36,-0.263 -0.862,-0.771l-2.383 -2.975c-0.767,-0.992 -0.824,-0.99 -1.699,-1.726 -0.201,-0.169 -0.116,-0.08 -0.257,-0.24 -0.223,-0.255 -0.098,-0.159 -0.264,-0.385l-2.694 -2.393c-1.373,-1.669 -0.353,0.124 -1.824,-1.772 -0.35,0.129 -0.167,0.545 -0.705,0.182l-2.469 -1.699c-0.622,-0.376 -1.039,-1.205 -2.414,-1.568 -1.107,-0.292 -0.357,-0.062 -1.04,-0.625l-2.03 -1.136c-1.197,-0.383 -0.304,-0.029 -1.065,-0.604 -0.92,-0.696 -3.356,-1.44 -3.528,-1.519 -0.114,-0.052 -0.534,-0.291 -0.536,-0.292 -0.398,-0.151 -0.283,-0.062 -0.705,-0.152l-2.504 -0.893c-0.279,-0.812 0.489,0.673 0.176,-0.261 -1.544,-0.036 -1.281,-0.193 -2.255,-0.658 -0.797,-0.381 -2.855,-0.572 -4.076,-0.619l-1.016 -0.175c-0.036,-0.015 -0.076,-0.04 -0.111,-0.055 -1.274,-0.536 -0.85,0.025 -1.89,-0.211 -0.036,-0.008 -0.081,-0.028 -0.117,-0.037 -2.609,-0.692 -2.836,-0.369 -6.085,-0.861 -1.627,-0.246 -2.886,-0.18 -4.479,-0.183 -0.212,0 -0.497,-0.02 -0.702,-0.004l-0.686 0.164c5.857,-0.345 14.972,2.288 20.321,4.32 5.259,2 11.116,5.809 14.786,9.001 8.036,6.988 15.024,17.476 15.824,30.025l2.421 -0.198z"/>
  <path fill="#B8DEF1" d="M73.016 165.853c0.199,-0.262 -0.203,-0.284 0.226,-0.221l-0.831 0.146c0.194,-0.584 -0.095,-0.253 0.49,-0.595 -0.787,-0.046 -0.816,-0.192 -1.131,-0.717 -0.903,-1.504 0.128,-0.267 -1.114,-1.462 -0.178,-0.171 -0.258,-0.335 -0.425,-0.559l-0.864 -1.068c-0.024,-0.022 -0.063,-0.052 -0.089,-0.073 -0.025,-0.022 -0.066,-0.05 -0.093,-0.071 -0.037,-0.03 -0.15,-0.114 -0.188,-0.144l-2.268 -2.004c-0.025,-0.022 -0.06,-0.055 -0.086,-0.077l-0.374 -0.283c-0.119,-0.097 -0.156,-0.118 -0.266,-0.238l-0.478 -0.656c-0.021,-0.025 -0.054,-0.059 -0.076,-0.083l-0.435 -0.378c-0.025,-0.022 -0.064,-0.053 -0.09,-0.075 -0.026,-0.022 -0.062,-0.055 -0.088,-0.078 -0.025,-0.022 -0.061,-0.054 -0.087,-0.076l-0.528 -0.457c-1.024,-0.891 -1.926,-1.705 -3.179,-2.415l-2.747 -1.893c-0.266,-0.161 -0.359,-0.2 -0.623,-0.382l-2.043 -1.275c-0.03,-0.019 -0.071,-0.045 -0.102,-0.065l-1.603 -0.871c-0.222,-0.073 -0.243,-0.078 -0.382,-0.135 -0.47,-0.191 -0.77,-0.361 -1.213,-0.646 -0.812,-0.525 -1.004,-0.278 -1.96,-0.894l-1.099 -0.583c-0.338,-0.263 0.08,-0.064 -0.575,-0.391l-3.964 -1.753c-0.272,-0.141 -1.047,-0.414 -1.326,-0.513l-3.505 -1.248c-0.159,-0.081 -0.092,-0.047 -0.329,-0.164 -0.794,-0.392 -2.635,-0.768 -3.688,-0.795 -0.221,-0.446 -0.357,-0.417 -0.81,-0.637 -0.651,-0.315 -2.003,-0.259 -3.183,-0.314 -0.151,-0.313 0.415,-0.023 -0.087,-0.279 -0.193,-0.098 -0.409,-0.096 -0.768,-0.145l-1.037 -0.201c-0.041,-0.012 -0.085,-0.031 -0.125,-0.043 -1.435,-0.447 -3.338,0.17 -4.13,-0.909 -1.676,-0.036 -2.376,-0.294 -4.041,-0.339 -1.308,-0.035 -2.748,-0.238 -4.042,-0.318 -1.69,-0.104 -6.811,-0.299 -8.258,-0.075 4.438,-0.273 15.078,1.657 19.495,2.901 5.868,1.653 11.153,3.68 15.912,6.193 6.368,3.363 14.114,8.751 18.672,13.886l4.941 5.62c0.551,-0.214 3.743,-2.064 4.594,-2.148z"/>
  <path fill="#B8DEF1" d="M553.065 207.814c5.874,-0.214 17.011,3.12 22.243,5.826 6.375,3.297 10.816,6.422 15.556,11.537 5.019,5.417 6.241,9.114 7.274,10.389 0.952,-0.108 4.161,-1.644 5.274,-1.775 0.429,-0.278 -0.52,-0.156 0.574,-0.267l-1.578 -1.282c-0.237,-0.328 -0.088,-0.112 -0.245,-0.412l-0.913 -1.491c-0.524,-0.737 -1.249,-0.593 -1.265,-2.553 -1.26,-0.615 -0.676,0.154 -1.353,-1.143 -0.32,-0.613 -0.616,-0.73 -0.851,-0.904 -0.625,-0.459 -0.478,-0.609 -0.811,-0.994 -0.021,-0.024 -0.054,-0.059 -0.077,-0.081 -0.022,-0.023 -0.059,-0.055 -0.084,-0.077 -0.035,-0.031 -0.147,-0.111 -0.185,-0.141l-2.198 -2.244c-0.344,-0.56 0.356,-0.121 -0.664,-0.597 -0.635,-0.296 -0.228,0.018 -0.726,-0.466l-1.896 -1.702c-0.028,-0.018 -0.071,-0.043 -0.101,-0.061 -0.445,-0.269 -0.43,-0.086 -0.83,-0.522 -0.541,-0.592 0.128,-0.289 -0.587,-0.703 -0.179,-0.458 0.548,0.65 -0.641,-0.182 -0.712,-0.498 -0.065,-0.273 -1.024,-0.707 -0.548,-0.248 -0.458,-0.365 -0.69,-0.579l-4.613 -2.709c-0.943,-0.736 0.288,0.014 -1.103,-0.55 -0.033,-0.013 -0.08,-0.037 -0.111,-0.051 -0.605,-0.263 0.295,0.074 -0.262,-0.132l-3.354 -1.458c-1.02,-0.376 -0.827,-0.153 -1.679,-0.701 -0.495,-0.319 -0.001,-0.14 -0.537,-0.24 -0.851,-0.159 -0.601,0.073 -1.47,-0.291 -0.698,-0.293 -0.648,-0.208 -1.526,-0.223 0.307,-0.937 -0.887,-1.071 -2.463,-1.274 -0.997,-0.129 -0.616,0.002 -1.302,-0.302l-0.946 -0.339c-0.508,-0.047 -0.992,0.038 -1.556,-0.04 -0.389,-0.053 -0.699,-0.195 -1.104,-0.243 -0.583,-0.069 -0.968,-0.023 -1.482,-0.114 -0.932,-0.166 -4.227,-0.607 -5.065,-0.42 -1.094,0.244 -4.583,-0.345 -5.629,0.218z"/>
  <path fill="#A5CEE2" d="M0.802 80.498c1.375,0.407 3.605,1.549 4.854,2.277 3.331,1.94 5.447,3.448 8.055,5.841 5.876,5.39 10.96,14.207 11.159,22.585 0.963,0.018 3.689,-1.148 5.264,-1.297 0.047,-0.46 0.199,-0.011 -0.215,-0.238l0.387 -0.273c-0.009,-0.258 0.019,-0.608 -0.042,-0.788 -0.224,-0.664 -0.415,0.086 -0.5,-1.406l-0.468 -2.042c-0.493,-0.854 0.169,-0.202 -0.266,-0.982 -0.794,-1.426 -0.129,-0.338 -0.326,-1.003 -0.07,-0.234 -0.262,-0.145 -0.564,-1.284 -0.468,-1.766 -0.878,-1.487 -0.848,-2.172 0.021,-0.469 -0.307,-0.66 -0.656,-1.41 -0.695,-1.495 -0.428,-0.057 -1.405,-2.448 -0.366,-0.895 -0.729,-0.925 -1.263,-1.651l-2.145 -2.719c-0.352,-0.362 -0.439,-0.717 -0.792,-1.146 -0.022,-0.026 -0.051,-0.063 -0.073,-0.088l-1.872 -1.735c-0.894,-0.627 -1.82,-1.681 -2.988,-2.443 -0.281,-0.184 0.045,0.06 -0.292,-0.206 -0.691,-0.547 -2.007,-1.715 -2.951,-2.023l-8.688 -4.061c-0.035,-0.016 -0.079,-0.038 -0.115,-0.054l-0.84 -0.33c-0.38,-0.173 -0.395,-0.216 -0.668,-0.328 -0.426,-0.174 -1.106,-0.331 -1.742,-0.359l0 1.783z"/>
  <path fill="#B8DEF1" d="M236.681 239.979c-0.068,-0.494 -1.366,0.345 -1.324,-1.924 0.034,-1.78 0.792,-0.261 -0.365,-2.382 -0.117,-0.216 -0.26,-0.543 -0.353,-0.772 -0.844,-2.087 -0.341,-0.802 -1.314,-2.202l-1.036 -1.23c-0.874,-1.125 -0.161,-0.818 -1.258,-1.627 -0.419,-0.309 -0.715,-0.553 -0.783,-1.168 -0.139,-0.003 -0.322,0.009 -0.454,-0.016 -0.772,-0.145 -0.193,-0.136 -1.366,-0.665 -1.045,-0.471 -0.171,-0.447 -1.397,-1.248 -0.783,-0.512 -1.042,-1.2 -2.22,-1.72 -1.06,-0.469 -0.209,-0.186 -1.365,-0.972 -0.974,-0.662 -0.824,-0.35 -1.825,-1.173 -0.442,-0.364 -0.208,-0.302 -0.925,-0.362 -1.037,-0.086 -0.569,0.08 -1.215,-0.216l-0.958 -0.387c-1.378,-0.459 -0.598,-0.558 -0.902,-1.137 -0.251,-0.077 -0.628,-0.12 -0.858,-0.189l-0.39 -0.146c-0.039,-0.017 -0.081,-0.04 -0.118,-0.057 -2.016,-0.964 -0.969,-0.292 -2.715,-0.682 -0.826,-0.184 -0.379,-0.202 -0.978,-0.366l-1.26 -0.289c-0.04,-0.012 -0.084,-0.031 -0.123,-0.043l-0.819 -0.193c-2.32,-0.488 -9.778,-0.959 -11.295,-0.528 3.274,-0.049 8.451,1.271 11.112,2.324 3.542,1.403 5.957,2.756 8.564,4.627 4.736,3.4 9.122,9.006 10.783,14.638l1.27 0.072 0.082 1.789c1.806,-0.457 3.926,-1.552 5.805,-1.756z"/>
  <path fill="#A5CEE2" d="M38.848 109.852c11.696,0.659 21.07,7.969 24.673,16.658 1.697,4.094 1.667,6.642 1.54,11.264l5.294 -2.693c0.067,-0.579 -0.011,-0.188 -0.002,-0.365l0.018 -0.143c-0.019,-0.354 0.116,-0.108 -0.515,-0.389 0,-0.824 0.068,-1.608 0.098,-2.353 0.032,-0.8 -0.069,-0.096 -0.24,-0.885 -0.218,-1.006 0.245,-0.88 -0.283,-1.465 -0.022,-0.024 -0.059,-0.058 -0.081,-0.084 -0.681,-0.787 -0.316,-1.166 -0.441,-1.735l-0.98 -1.915c-0.392,-0.572 -0.355,-0.702 -0.51,-1.378 -0.349,-1.513 -0.639,-0.679 -1.097,-1.351 -0.297,-0.437 0.005,-0.767 -0.755,-1.64l-1.078 -1.353c-0.395,-0.444 -0.248,-0.218 -0.463,-0.369 -0.817,-0.571 -0.317,-0.465 -1.068,-1.206 -0.024,-0.024 -0.06,-0.056 -0.085,-0.079l-0.866 -0.775c-0.3,-0.31 -0.129,-0.196 -0.357,-0.452l-2.365 -1.776c-1.322,-0.699 -0.768,-0.69 -1.444,-1.036 -0.526,-0.268 -0.761,-0.159 -1.176,-0.499 -0.44,-0.362 -0.165,-0.505 -0.924,-0.736 -1.901,-0.58 -0.537,-0.178 -1.768,-0.75l-1.793 -0.739c-1.849,-0.635 -3.49,-1.199 -5.547,-1.331 -0.967,-0.062 -0.46,-0.189 -1.24,-0.361 -0.947,-0.208 -3.89,-0.251 -4.897,-0.253 -0.521,-0.002 -2.804,0.097 -3.026,-0.102 0.779,0.011 0.962,0.044 1.378,0.291z"/>
  <path fill="#90C3E6" d="M102.143 50.623c1.26,0.296 3.48,0.372 5.898,0.991 4.365,1.118 9.23,3.745 12.283,6.741 0.922,0.905 1.013,0.635 1.78,1.662l0.864 1.059c0.049,0.064 0.182,0.247 0.209,0.282l1.132 1.47c2.01,3.415 3.158,5.225 3.733,9.424 0.121,0.88 0.261,2.122 0.266,3.006l-0.15 2.223c-0.001,0.055 0.014,0.32 0.026,0.386 0.08,0.423 0.017,0.175 0.129,0.396l3.807 -2c-0.305,-0.091 -0.637,-0.226 -1.173,-0.241 0.746,-0.811 0.974,0.881 0.422,-1.367 -0.406,-1.652 0.341,-0.985 -0.421,-1.233l-0.07 0.757c-0.172,0.421 -0.004,0.175 -0.281,0.467 -0.007,-2.779 -0.716,-3.112 -0.594,-3.639 0.398,-1.727 0.242,1.068 0.161,-0.51 -0.003,-0.069 -0.601,-2.448 -0.955,-2.971 -0.404,-0.596 -0.306,0.134 -0.372,-1.136 -0.066,-1.286 -0.108,-0.01 -0.493,-1.35 -0.141,-0.489 0.086,-0.151 -0.18,-0.601 -0.372,-0.63 -0.782,-0.358 -1.315,-1.429 -0.24,-0.483 -1.146,-2.034 -1.595,-2.398 -0.994,-0.806 -0.515,-0.271 -1.401,-1.383 -0.015,-0.018 -0.305,-0.353 -0.314,-0.363l-0.425 -0.394c-1.084,-0.848 -0.846,-0.823 -1.378,-1.278l-2.662 -1.642c-1.161,-0.422 -0.293,-0.382 -1.379,-0.915l-2.649 -1.376c-2.118,-0.976 -2.482,-0.562 -4.425,-1.377l-0.925 -0.18c0.102,-0.201 0.304,-0.252 -0.478,-0.308 -2.562,-0.181 -3.441,-0.917 -7.426,-0.915 -1.053,0 -2.108,0 -3.162,0 0.351,0.41 2.783,0.16 3.513,0.142z"/>
  <path fill="#A5CEE2" d="M505.352 176.765c5.056,-0.176 12.76,2.467 16.212,4.454 8.225,4.735 9.138,7.991 10.886,9.334 1.276,-0.264 2.369,-0.987 3.726,-1.255l-0.695 -0.787c-1.514,-1.331 0.147,0.009 -1.487,-1.751l-0.516 -0.477c-0.042,-0.027 -0.175,-0.092 -0.216,-0.119 -0.564,-0.355 -0.339,-0.343 -0.966,-0.838l-0.784 -0.695c-1.117,-0.808 -2.143,-1.623 -3.266,-2.206l-1.059 -0.601c-0.026,-0.021 -0.062,-0.054 -0.088,-0.076l-3.173 -1.834c-0.374,-0.178 -0.601,-0.208 -0.982,-0.369 -1.972,-0.832 -0.84,0.084 -2.702,-0.722l-1.269 -0.705c-0.557,-0.271 -0.641,-0.094 -1.252,-0.183 -0.604,-0.088 -0.238,-0.168 -0.934,-0.365 -1.71,-0.483 -4.432,-0.812 -6.309,-0.915 -0.706,-0.039 -4.975,-0.245 -5.126,0.11z"/>
  <path fill="#B8DEF1" d="M662.657 199.197c2.103,-0.096 6.858,0.937 8.895,1.523 5.081,1.463 9.843,3.77 13.795,6.667 1.788,1.312 3.887,3.022 5.175,4.605 0.027,-0.023 0.057,-0.064 0.069,-0.08 0.012,-0.017 0.052,-0.063 0.065,-0.085l0.111 -0.19c0.013,-0.025 0.111,-0.316 0.118,-0.339l0.52 -2.314 0.173 -1.355c-0.66,-0.308 0.76,0.386 -0.395,-0.115 -0.318,-0.137 -0.189,-0.035 -0.427,-0.246 -0.001,-0.001 -0.209,-0.256 -0.221,-0.273 -0.13,-0.182 -0.113,-0.134 -0.239,-0.395l-1.53 -0.052c-0.454,-0.439 -0.54,-0.997 -1.265,-1.178 -0.21,-0.053 -0.761,-0.045 -1.005,-0.051 0.046,-0.526 0.264,-0.312 0.162,-0.572 -2.344,-0.935 -1.21,-1.202 -3.337,-1.26 -0.026,-0.03 -0.054,-0.12 -0.063,-0.097 -0.009,0.022 -0.05,-0.078 -0.062,-0.098 -0.018,-0.028 -0.094,-0.163 -0.119,-0.2 -0.309,-0.457 0.076,-0.293 -1.075,-0.577 -0.266,-0.066 -0.488,-0.139 -0.656,-0.198 -0.587,-0.206 -0.593,-0.261 -1.035,-0.484 -0.528,-0.268 -0.559,-0.3 -0.678,-0.569 -0.875,-0.036 -1.399,-0.141 -2.064,-0.393 -1.118,-0.422 -0.541,-0.382 -2.161,-0.429 -0.03,0 -0.506,-0.021 -0.51,-0.022l-1.406 -0.448c-0.373,-0.087 -0.555,-0.118 -0.943,-0.244 -1.28,-0.415 -0.948,0.016 -2.226,-0.345l-3.511 -0.313c-1.755,-0.064 -3.287,-0.205 -5.157,-0.172l1.002 0.299z"/>
  <path fill="#B8DEF1" d="M116.656 178.743c0.241,-0.3 0.294,-0.409 -0.013,-0.845 -0.146,-0.206 -0.487,-0.498 -0.713,-0.774 -1.064,-1.298 -0.149,-0.846 -0.95,-1.778l-1.238 -1.519c-0.031,-0.035 -0.123,-0.138 -0.155,-0.172l-0.243 -0.251c-0.713,-0.675 -0.42,-0.166 -1.086,-1.034 -0.515,-0.67 -0.056,-0.168 -0.763,-0.58 -0.348,-0.202 -0.462,-0.382 -0.779,-0.686l-0.354 -0.308c-0.862,-0.69 -1.125,-1.06 -1.927,-1.539l-1.303 -0.844c-0.777,-0.663 -0.824,-0.224 -1.65,-0.714l-1.798 -1.037c-0.184,-0.091 -0.799,-0.416 -0.911,-0.448 -0.54,-0.154 -1.17,-0.024 -1.311,-0.047 -0.159,-0.027 0.002,0.047 -0.322,-0.18l-0.288 -0.214c-0.5,-0.271 -0.95,-0.2 -1.401,-0.345l-0.431 -0.213c-1.115,-0.561 -1.634,-0.239 -2.466,-0.614l-0.434 -0.229c-1.904,-0.741 -4.683,-0.785 -6.622,-0.829 -0.531,-0.012 -1.056,0.009 -1.587,0.016 -0.507,0.008 -1.014,-0.029 -1.39,0.171 2.911,-0.241 7.382,0.872 9.77,1.578 4.967,1.469 10.145,4.792 13.354,8.263 0.929,1.005 1.602,1.771 2.43,2.933 0.502,0.703 1.618,2.756 2.044,3.19l2.537 -0.951z"/>
  <path fill="#B8DEF1" d="M435.737 278.771l0.007 -0.438c-0.369,0.172 -0.106,0.266 -0.626,0.437 -0.037,-0.567 -0.15,-0.654 -0.468,-0.977l-0.417 -0.39c-0.738,-0.563 -0.876,-0.034 -2.001,-0.699 -1.451,-0.857 -2.49,-1.136 -2.633,-1.228 -1.289,-0.831 0.911,0.729 -0.275,-0.231 -0.58,-0.471 -0.953,-0.36 -1.728,-0.6 -1.338,-0.413 -1.649,-0.689 -2.278,-0.74 -1.207,-0.097 -1.122,0.148 -2.051,-0.26 -1.061,-0.467 -1.314,-0.128 -2.446,-0.625 -0.035,-0.016 -0.078,-0.039 -0.112,-0.056l-0.313 -0.174c-0.794,-0.359 -1.59,-0.441 -2.46,-0.453l0 -0.256c-0.432,-0.007 -0.59,0.013 -1.006,-0.083 -0.047,-0.011 -0.089,-0.028 -0.133,-0.04l-0.245 -0.084c-1.607,-0.431 -12.281,-1.084 -13.778,-0.652 2.434,-0.209 7.695,0.645 10.033,1.107 5.098,1.007 11.875,3.364 16.142,5.851l6.51 4.022 0.278 -3.431z"/>
  <path fill="#B8DEF1" d="M788.641 174.874l-0.253 -1.203c-0.011,-0.426 -0.007,-0.849 -0.024,-1.279l0.032 1.154c-0.75,-0.236 0.087,-0.421 -2.071,-1.297 -0.249,-0.101 -0.484,-0.269 -0.786,-0.371l-2.818 -0.754c-1.415,-0.285 0.067,-0.212 -1.722,-0.498l-1.649 -0.423c-0.795,-0.354 0.391,-0.044 -1.152,-0.356 -0.931,-0.188 -0.563,-0.414 -1.796,-0.547 -0.545,-0.059 -0.612,-0.021 -1.077,-0.169 -0.043,-0.014 -0.086,-0.033 -0.127,-0.047l-0.235 -0.102c-0.178,-0.071 0.029,-0.042 -0.468,-0.177 -1.748,-0.476 -4.451,-0.676 -6.344,-0.765 -1.035,-0.048 -1.272,-0.224 -2.119,-0.292 -1.189,-0.096 -7.566,-0.566 -8.903,-0.306l-0.254 0.077c-0.026,0.007 -0.08,0.026 -0.115,0.046 4.165,-0.269 13.587,1.672 17.665,2.932 4.859,1.501 8.264,2.882 12.535,5.147 0.936,0.497 1.094,0.727 1.764,0.836l-0.083 -1.606z"/>
  <path fill="#f5f5f5" d="M798.37 177.917l0.084 1.605c-0.683,-0.109 -0.845,-0.34 -1.8,-0.836 -4.357,-2.264 -7.831,-3.646 -12.789,-5.147 -4.162,-1.259 -13.775,-3.202 -18.024,-2.932 -2.253,0.117 -4.931,-0.213 -7.112,0.054 -2.226,0.272 -4.388,0.315 -6.529,0.594 -4.431,0.581 -4.942,0.955 -8.757,1.678 -0.882,0.169 -1.732,0.545 -2.64,0.792l-5.133 1.725c-0.708,0.31 -1.734,0.643 -2.451,0.971l-6.761 3.415c-0.588,0.405 -0.471,0.22 -1.1,0.576 -0.335,0.19 -0.597,0.389 -1.039,0.645 -2.892,1.68 -4.603,3.176 -7.038,4.988l-0.2 0.15c-0.03,0.023 -0.071,0.053 -0.102,0.076l-2.258 2.047c-2.167,1.944 -4.71,4.449 -6.344,6.825l-5.494 8.314c-0.018,0.033 -0.041,0.072 -0.06,0.106l-2.672 5.956c-0.31,0.759 -0.387,2.056 -0.993,2.507l-0.53 2.313c-0.008,0.025 -0.108,0.314 -0.121,0.34l-0.113 0.191c-0.014,0.02 -0.055,0.067 -0.067,0.083 -0.011,0.018 -0.042,0.058 -0.071,0.081 -1.314,-1.583 -3.455,-3.293 -5.28,-4.605 -4.031,-2.898 -8.89,-5.205 -14.074,-6.668 -2.078,-0.585 -6.931,-1.618 -9.076,-1.523 -8.207,0.208 -5.026,-0.572 -14.227,0.916 -2.429,0.393 -6.371,1.794 -8.6,2.757 -1.927,0.831 -6.23,3.065 -7.579,4.246l-1.077 0.75c-2.981,1.89 -5.651,5.185 -7.806,7.733 -2.424,2.868 0.757,2.241 -6.126,1.617 -9.951,-0.903 -12.606,1.01 -15.035,1.077 -1.135,0.131 -4.409,1.668 -5.38,1.776 -1.055,-1.275 -2.301,-4.973 -7.422,-10.389 -4.836,-5.117 -9.368,-8.241 -15.873,-11.538 -5.338,-2.705 -16.702,-6.04 -22.695,-5.826 -1.211,0.022 -2.413,-0.109 -3.651,-0.138 -2.692,-0.063 -7.933,0.393 -10.515,0.797 -2.322,0.365 -7.056,1.414 -9.03,2.11 -1.914,0.675 -4.852,1.606 -6.647,2.558l-1.298 0.602c-2.738,1.269 -5.233,2.963 -7.728,4.565l-8.481 7.456c-0.089,0.088 -0.17,0.17 -0.244,0.245 -0.309,0.315 -0.493,0.484 -0.808,0.837l-2.339 3.07c-1.741,1.872 -4.929,8.536 -5.898,11.294 -0.309,0.876 -0.572,1.712 -0.767,2.702 -0.432,2.199 -0.779,2.729 -1.107,5.664 -0.217,1.942 -0.413,4.105 -0.314,6.283 0.04,0.923 0.204,1.908 0.305,2.9 0.119,1.153 0.391,1.877 0.552,2.875 -0.704,0.147 -4.29,-0.764 -5.208,-0.953 -5.443,-1.123 -12.342,-0.819 -17.738,-0.123 -3.141,0.405 -7.306,1.458 -10.034,2.472 -2.641,0.981 -6.895,2.987 -9.406,4.502l-6.031 4.483c-1.036,0.891 -2.054,1.908 -3.037,2.926 -2.536,2.629 -7.174,9.005 -8.157,12.572 -0.208,0.753 -0.472,1.345 -0.732,2.172l-1.139 4.219c-0.217,0.451 0.123,0.044 -0.26,0.367l-0.284 3.43 -6.642 -4.022c-4.354,-2.486 -11.268,-4.844 -16.469,-5.852 -2.386,-0.461 -7.754,-1.315 -10.238,-1.106 -2.333,0.099 -4.25,-0.016 -7.287,0.174 -9.994,0.625 -16.757,3.828 -18.055,3.997 -0.436,0.081 -3.011,1.283 -3.568,1.57l-3.461 1.732c-0.232,-5.147 0.327,-6.366 -2.387,-11.525 -3.06,-5.817 -10.504,-10.752 -18.392,-11.694 -1.078,-0.128 -2.644,-0.315 -3.592,-0.349 -2.492,-0.089 -4.82,0.307 -7.134,0.842 -0.762,0.177 -2.396,0.789 -2.973,0.794 -0.486,-9.663 -6.462,-17.201 -13.421,-22.026 -0.708,-0.492 -1.723,-1.144 -2.591,-1.618 -1.929,-1.052 -3.595,-1.826 -5.724,-2.607 -2.145,-0.787 -4.354,-1.421 -6.648,-1.818 -1.879,-0.324 -6.016,-0.809 -7.986,-0.588 -4.923,0.29 -5.309,0.288 -10.041,1.333 -1.328,0.293 -3.03,0.879 -4.145,1.345l-10.144 5.892c-0.028,0.023 -0.066,0.055 -0.092,0.078 -1.879,1.585 -3.943,3.575 -5.192,5.678l-8.056 -2.389c-7.022,-1.841 -16.826,-2.292 -24.061,-0.903l-4.517 0.838c-1.918,0.206 -4.081,1.3 -5.924,1.757l-0.084 -1.789 -1.296 -0.072c-1.694,-5.632 -6.169,-11.238 -11.001,-14.638 -2.661,-1.87 -5.124,-3.224 -8.738,-4.626 -2.716,-1.054 -7.998,-2.374 -11.338,-2.325l-5.914 0.059 -2.471 0.198c-0.816,-12.55 -7.946,-23.037 -16.145,-30.025 -3.746,-3.192 -9.722,-7.002 -15.088,-9.001 -5.456,-2.033 -14.757,-4.665 -20.734,-4.321 -2.252,0.109 -4.485,-0.06 -6.639,0.101 -2.398,0.18 -4.005,0.386 -6.279,0.684 -4.826,0.634 -9.757,2.607 -10.813,2.763l-2.589 0.95c-0.436,-0.433 -1.573,-2.485 -2.086,-3.189 -0.846,-1.162 -1.532,-1.929 -2.48,-2.933 -3.273,-3.471 -8.557,-6.793 -13.625,-8.262 -2.437,-0.707 -6.997,-1.82 -9.969,-1.578 -2.367,0.196 -3.888,-0.194 -7.426,0.529 -1.113,0.227 -2.136,0.47 -3.178,0.674 -1.198,0.233 -2.224,0.793 -3.174,0.919 -0.869,0.084 -4.126,1.935 -4.688,2.147l-5.041 -5.619c-4.652,-5.135 -12.554,-10.524 -19.052,-13.886 -4.855,-2.512 -10.249,-4.54 -16.235,-6.194 -4.506,-1.242 -15.364,-3.173 -19.891,-2.9l-8.775 0.253 0 148.966 896.022 0 0 -171.69c-1.495,-0.119 -2.741,-0.408 -5.017,-0.555 -2.117,-0.137 -3.642,-0.125 -5.737,-0.073 -4.28,0.106 -9.137,0.948 -12.996,2.381 -0.386,0.142 -0.637,0.169 -1.054,0.305 -2.286,0.744 -4.559,1.863 -6.598,2.952 -2.362,1.262 -6.067,3.652 -7.816,5.432 -2.553,2.596 -4.529,4.126 -6.666,7.762l-1.862 3.317c-1.896,3.553 -3.091,7.967 -3.188,11.973 -1.671,-0.092 -4.212,-1.289 -7.544,-1.594 -2.746,-0.251 -5.839,-0.385 -8.598,-0.014 -5.226,0.703 -8.864,2.088 -13.064,4.628 -2.057,1.245 -2.926,2.22 -4.781,3.72l-3.811 4.686 -1.379 2.643c-1.711,3.74 -1.959,6.196 -2.062,10.382z"/>
 </g>
</svg>
